PathFileType	4	(X/Y/Z)	s01c0202.trc
DataRate	CameraRate	NumFrames	NumMarkers	Units	OrigDataRate	OrigDataStartFrame	OrigNumFrames
200	200	5	48	mm	200	1000	2000
Frame#	Time	racr			lacr			c7			jug			rlel			rdr			llel			ldr			s2			lic			ric			lasi			rasi			rpsi			lpsi			rgt			lgt			rth1			rth2			rth3			rth4			rlfc			rsh1			rsh2			rsh3			rsh4			rlmal			rmmal			rcal			rtoe			rmt5			lth1			lth2			lth4			lth3			llfc			lsh1			lsh2			lsh3			lsh4			llmal			lmmal			lcal			ltoe			lmt5			SBIKE			LBIKE			RBIKE			
		X1	Y1	Z1	X2	Y2	Z2	X3	Y3	Z3	X4	Y4	Z4	X5	Y5	Z5	X6	Y6	Z6	X7	Y7	Z7	X8	Y8	Z8	X9	Y9	Z9	X10	Y10	Z10	X11	Y11	Z11	X12	Y12	Z12	X13	Y13	Z13	X14	Y14	Z14	X15	Y15	Z15	X16	Y16	Z16	X17	Y17	Z17	X18	Y18	Z18	X19	Y19	Z19	X20	Y20	Z20	X21	Y21	Z21	X22	Y22	Z22	X23	Y23	Z23	X24	Y24	Z24	X25	Y25	Z25	X26	Y26	Z26	X27	Y27	Z27	X28	Y28	Z28	X29	Y29	Z29	X30	Y30	Z30	X31	Y31	Z31	X32	Y32	Z32	X33	Y33	Z33	X34	Y34	Z34	X35	Y35	Z35	X36	Y36	Z36	X37	Y37	Z37	X38	Y38	Z38	X39	Y39	Z39	X40	Y40	Z40	X41	Y41	Z41	X42	Y42	Z42	X43	Y43	Z43	X44	Y44	Z44	X45	Y45	Z45	X46	Y46	Z46	X47	Y47	Z47	X48	Y48	Z48	
1000	5.0000	556.681632	1227.927723	-100.904402	545.087758	1216.806148	-460.105729	526.077448	1337.505174	-276.390947	514.050719	1169.418900	-275.378804	468.320943	980.164683	32.519412	680.713392	893.237804	-51.551151	468.251188	973.710214	-598.040321	647.949482	878.814302	-462.447585	-5.576318	1151.502013	-242.908083	139.768240	1165.434637	-430.770710	157.982975	1147.534698	-92.526233	151.117896	1111.152453	-407.532191	185.560327	1111.648124	-127.315816	26.532950	1188.553076	-192.006937	17.614622	1193.585136	-298.012445	122.487470	1051.026911	-63.484357	88.213157	1021.360712	-445.350514	238.840559	1001.209160	-62.370732	318.717373	981.930822	-74.107557	402.622581	954.946949	-91.593767	331.657067	1033.411754	-93.314633	481.114454	887.513786	-127.800650	392.873240	820.074219	-92.929185	330.461440	763.183661	-95.031804	259.233245	709.793752	-100.923898	361.579771	725.718846	-130.174418	158.275776	637.740638	-113.957548	197.839749	617.096639	-192.388666	107.449926	641.581442	-168.322548	276.865649	428.566331	-145.197194	186.000354	489.770460	-79.328785	138.028709	899.601811	-451.829485	196.894006	832.639781	-451.723959	238.084747	868.326718	-452.052998	248.288657	765.898131	-434.198179	309.598314	661.398151	-422.742921	252.822779	564.274436	-454.350150	236.325240	479.593513	-446.426915	217.919739	396.712799	-432.350404	292.263988	471.493512	-421.803337	190.969738	272.598281	-415.781680	243.038452	312.951943	-338.801099	144.370648	249.005845	-373.983678	410.557702	172.359746	-385.351267	302.047424	167.362956	-449.465138	-229.542410	890.973275	-255.605190	-22.880103	80.197058	-456.559117	-22.880031	80.404127	-56.349533	
1001	5.0050	556.086909	1227.932230	-98.769363	546.627775	1216.300853	-458.014066	526.684654	1337.005215	-274.460230	514.451001	1168.944020	-273.455241	467.620227	979.299320	33.291829	680.219115	893.032432	-51.766138	468.860583	974.790528	-597.831542	648.368555	878.605904	-462.672835	-5.607728	1151.943288	-244.088487	141.104532	1164.862375	-431.163392	157.345635	1148.254671	-92.709527	151.481555	1110.954849	-407.935400	184.950309	1112.545280	-127.178211	26.922813	1188.575736	-193.754671	17.889730	1194.050410	-299.315984	121.806042	1052.218144	-63.896138	87.411531	1021.439857	-446.040386	238.080130	1003.463441	-62.821926	318.282975	985.706569	-74.128304	402.732570	960.200134	-91.376345	330.436072	1037.390432	-93.153018	482.708617	894.974555	-127.242093	395.104705	827.259794	-92.762322	333.400704	769.848217	-95.129522	262.809742	715.628349	-101.408576	365.721209	732.552482	-129.307588	162.715203	641.519404	-115.213590	203.275614	621.798181	-193.220438	111.886434	643.813577	-169.434501	287.459723	436.001635	-145.190532	194.578841	494.840710	-79.718765	135.389641	899.142776	-452.935704	192.757426	831.309932	-453.953302	234.907887	866.150017	-453.842197	243.309354	763.664146	-436.069563	302.984057	658.075609	-424.679309	245.024412	561.318966	-455.663319	228.187374	476.713276	-447.166030	209.366932	394.061592	-432.726268	284.372557	468.505814	-423.539326	182.586323	270.125133	-415.677258	235.118953	310.145461	-338.508926	136.127285	247.378502	-373.815910	401.111702	166.824661	-385.328841	292.417739	163.303712	-449.333447	-229.598590	890.983503	-255.621015	-22.890206	80.239115	-456.535839	-22.889547	80.407162	-56.353035	
1002	5.0100	555.461466	1227.897003	-96.667196	548.183920	1215.698960	-455.861025	527.293346	1336.440918	-272.517102	514.714529	1168.540700	-271.502678	466.939715	978.489536	34.048658	679.709373	892.824940	-51.913861	469.438724	975.835245	-597.670024	648.653772	878.571069	-462.874237	-5.689383	1152.517463	-245.298799	142.183349	1163.864533	-431.128375	156.650312	1149.177182	-92.942581	151.772177	1110.814319	-408.318365	184.504802	1113.365109	-127.623239	26.727486	1189.014134	-195.034252	18.128508	1194.490130	-300.623966	121.222996	1053.565851	-64.296932	86.485030	1021.713015	-446.791086	237.321566	1006.192921	-63.105007	317.749624	989.567500	-74.328131	402.643386	965.437137	-91.244907	329.189473	1041.504303	-93.168304	483.031531	902.210218	-126.907265	397.277883	834.323547	-92.863676	336.433304	775.826366	-95.090259	266.609582	720.450419	-101.861998	369.509549	738.496664	-129.022702	167.797460	644.548528	-116.359143	208.962483	625.636702	-193.906224	116.542076	645.268717	-170.292675	298.212102	443.011402	-145.288660	203.384057	499.065865	-80.580821	132.955276	898.874669	-454.047339	188.967667	829.946204	-455.351043	231.951611	864.479967	-455.625059	238.826882	761.541053	-438.184315	296.859160	655.317417	-426.600441	237.513642	558.909379	-457.266448	220.300439	474.580682	-447.879632	200.974611	392.164293	-432.918632	276.810364	465.892340	-425.027707	174.153347	268.402457	-415.587601	227.006894	307.756949	-338.183825	127.793221	246.480684	-373.616702	391.387695	161.723946	-385.303443	282.607152	159.839509	-449.105808	-229.645829	890.994757	-255.651230	-22.901239	80.248879	-456.533546	-22.907517	80.409626	-56.348091	
1003	5.0150	554.888502	1228.062611	-93.330017	549.687246	1215.046256	-453.724399	527.874409	1335.792518	-270.547495	515.009537	1167.949740	-269.486554	466.043460	977.652049	34.884809	679.241116	892.605612	-51.989065	470.148840	976.768356	-597.446621	648.986484	878.059232	-462.749410	-5.808049	1153.129353	-246.417786	144.079687	1163.309425	-431.618989	155.962113	1150.072664	-93.089587	152.278908	1110.624591	-408.858985	183.654781	1114.505442	-127.549668	26.449917	1189.660374	-196.213633	18.326496	1195.187019	-301.870058	120.399457	1055.212928	-65.229278	85.529432	1022.035696	-447.441041	236.507140	1009.161217	-63.638544	317.111518	993.476787	-74.676956	402.429570	970.551089	-91.153299	328.030844	1045.713197	-93.322143	483.302532	909.076033	-126.497716	399.349879	840.515369	-92.484959	339.494386	780.802047	-95.053797	270.657684	724.396657	-102.096813	373.444317	743.882823	-128.611059	173.154699	646.854506	-117.275480	214.804476	628.637563	-194.436207	121.585692	645.885446	-170.820269	308.981395	449.276750	-145.593658	212.615937	502.638121	-80.830797	130.756275	898.772347	-455.144422	185.706132	829.034481	-456.914862	229.148269	863.121687	-457.525581	234.652920	760.079187	-440.026864	291.386656	653.099441	-428.456809	230.521750	557.284479	-458.146802	212.831136	473.110983	-448.502500	192.906739	390.915897	-433.149338	269.602789	463.907833	-426.480038	165.706160	267.426808	-415.512491	218.742533	305.798365	-337.832882	119.406955	246.328054	-373.406660	381.521646	157.337626	-385.254014	272.628021	157.180284	-448.986141	-229.681028	891.015800	-255.698702	-22.919702	80.260598	-456.541667	-22.922064	80.427206	-56.347067	
1004	5.0200	554.081658	1227.841156	-91.301025	551.218521	1214.240245	-451.507784	528.452108	1335.048935	-268.639948	515.273824	1167.394840	-267.307829	465.414200	976.748094	35.498083	678.824043	892.333345	-52.027176	470.858524	977.629494	-597.237741	649.373583	877.957499	-462.865958	-6.019893	1153.846242	-247.561078	145.947595	1162.818767	-431.992161	155.242407	1151.156429	-93.126197	152.410963	1110.474269	-409.336421	182.811395	1115.756382	-127.671532	26.064496	1190.395320	-197.331700	18.519032	1195.785772	-303.075825	119.860842	1057.165713	-65.501646	84.546983	1022.457254	-448.104076	235.658050	1012.420059	-64.235648	316.438274	997.562079	-75.106647	402.160721	975.512509	-91.075232	327.148292	1049.767170	-93.503677	487.949143	916.868462	-124.825869	401.421945	845.748820	-92.223718	342.548330	784.883828	-95.172408	274.933527	727.215047	-102.198346	377.512801	748.568003	-128.086961	179.127908	648.165834	-118.023771	220.631939	630.805701	-194.811199	126.964562	645.630481	-171.412226	319.792002	454.804314	-145.753461	221.876123	505.434655	-80.906726	128.824309	898.813566	-456.210266	182.819594	828.499402	-458.446293	226.589894	862.106046	-459.460148	230.681930	758.958851	-442.212597	286.645663	651.373645	-430.294337	224.483596	556.266801	-459.192793	205.932778	472.283690	-449.107628	185.209129	390.392630	-433.357146	262.889133	462.481618	-427.774814	157.302662	267.171055	-415.422508	210.366145	304.281637	-337.463093	111.013346	246.924365	-373.172661	371.530930	153.578254	-385.205284	262.560806	155.143675	-448.791514	-229.689871	891.043978	-255.740160	-22.911530	80.263162	-456.564585	-22.913325	80.431405	-56.364847	
